<svg width="29" height="30" viewBox="0 0 29 30" fill="none" xmlns="http://www.w3.org/2000/svg">
<g id="Iconly/Bulk/Category">
<g id="Category">
<path id="Fill 1" opacity="0.4" d="M19.3375 3.19019H23.3815C25.0562 3.19019 26.4133 4.55871 26.4133 6.24763V10.3257C26.4133 12.0147 25.0562 13.3832 23.3815 13.3832H19.3375C17.6627 13.3832 16.3057 12.0147 16.3057 10.3257V6.24763C16.3057 4.55871 17.6627 3.19019 19.3375 3.19019Z" fill="white"/>
<path id="Combined Shape" fill-rule="evenodd" clip-rule="evenodd" d="M5.55821 3.19019L9.60217 3.19019C11.2769 3.19019 12.634 4.55871 12.634 6.24763V10.3257C12.634 12.0147 11.2769 13.3832 9.60217 13.3832H5.55821C3.88343 13.3832 2.52637 12.0147 2.52637 10.3257V6.24763C2.52637 4.55871 3.88343 3.19019 5.55821 3.19019ZM5.55827 16.8838H9.60223C11.277 16.8838 12.6341 18.2523 12.6341 19.9413V24.0194C12.6341 25.7071 11.277 27.0768 9.60223 27.0768H5.55827C3.88349 27.0768 2.52643 25.7071 2.52643 24.0194V19.9413C2.52643 18.2523 3.88349 16.8838 5.55827 16.8838ZM23.3811 16.8838H19.3372C17.6624 16.8838 16.3053 18.2523 16.3053 19.9412V24.0194C16.3053 25.7071 17.6624 27.0768 19.3372 27.0768H23.3811C25.0559 27.0768 26.413 25.7071 26.413 24.0194L26.413 19.9412C26.413 18.2523 25.0559 16.8838 23.3811 16.8838Z" fill="white"/>
</g>
</g>
</svg>
