<svg width="73" height="73" viewBox="0 0 73 73" fill="none" xmlns="http://www.w3.org/2000/svg">
<circle cx="36.6351" cy="36.2059" r="35.8299" fill="#060D01"/>
<rect width="40.6073" height="40.6073" transform="translate(16.3315 15.9023)" fill="#060D01"/>
<path d="M40.7632 19.2864C40.7984 19.2865 40.8272 19.3035 40.8608 19.3069H41.2065C41.5506 19.3069 41.8792 19.4484 42.1187 19.7004L50.6646 28.6877C50.8905 28.9262 51.0171 29.2431 51.0171 29.5735V45.2268C51.0171 49.5092 47.5575 53.1259 43.4604 53.1262H29.9858C25.6491 53.1262 22.2534 49.6558 22.2534 45.2268V40.9583C22.2534 40.2532 22.8199 39.6802 23.5181 39.6799C24.2164 39.6799 24.7837 40.253 24.7837 40.9583V45.2268C24.7837 48.2726 27.0188 50.5706 29.9858 50.5706H43.4604C46.1861 50.5703 48.4868 48.1225 48.4868 45.2268V30.0862L42.0278 23.2932V25.5208C42.0278 27.2309 43.4058 28.6265 45.0991 28.6301C45.7975 28.6318 46.3625 29.2044 46.3608 29.9114C46.3589 30.6147 45.7944 31.1848 45.0962 31.1848H45.0942C42.0092 31.1779 39.4976 28.638 39.4976 25.5208V21.8616H29.9858C27.1655 21.8616 24.7837 24.1857 24.7837 26.9368L24.7837 34.0129C24.7836 34.7181 24.2164 35.2903 23.5181 35.2903C22.82 35.29 22.2535 34.718 22.2534 34.0129L22.2534 26.9368C22.2534 22.8007 25.7941 19.3069 29.9858 19.3069H40.6646C40.7 19.3035 40.7294 19.2864 40.7632 19.2864ZM35.9849 30.6848C36.3357 30.6848 36.651 30.8279 36.8804 31.0579V31.0588L41.6694 35.9163C42.1617 36.4171 42.1597 37.2256 41.6655 37.7229C41.4176 37.9699 41.0958 38.095 40.772 38.095C40.4482 38.095 40.1244 37.9703 39.8765 37.72L37.2495 35.054V43.1594C37.2493 43.8644 36.683 44.4367 35.9849 44.4368C35.2867 44.4368 34.7195 43.8645 34.7192 43.1594V35.054L32.0933 37.72C31.6007 38.2207 30.7991 38.2203 30.3032 37.7229C29.8094 37.2255 29.8081 36.417 30.3003 35.9163L35.0894 31.0588V31.0579C35.3188 30.8279 35.6357 30.6848 35.9849 30.6848Z" fill="#FAFAFA"/>
</svg>
