<svg width="24" height="26" viewBox="0 0 24 26" fill="none" xmlns="http://www.w3.org/2000/svg">
<path fill-rule="evenodd" clip-rule="evenodd" d="M22.2708 7.90656L21.5274 6.61657C20.8985 5.52505 19.5048 5.1485 18.4117 5.7748V5.7748C17.8915 6.0813 17.2706 6.16826 16.6861 6.0165C16.1017 5.86474 15.6016 5.48673 15.2961 4.96583C15.0996 4.63473 14.994 4.25761 14.99 3.87262V3.87262C15.0077 3.25536 14.7749 2.65722 14.3444 2.21444C13.914 1.77167 13.3227 1.52196 12.7052 1.52222H11.2075C10.6025 1.52221 10.0225 1.76328 9.59574 2.19208C9.16899 2.62088 8.93071 3.20206 8.93362 3.80702V3.80702C8.91569 5.05606 7.89798 6.05916 6.64881 6.05904C6.26381 6.05504 5.8867 5.94944 5.5556 5.75294V5.75294C4.46258 5.12663 3.06886 5.50318 2.43996 6.59471L1.64191 7.90656C1.01377 8.99672 1.3852 10.3896 2.47275 11.0222V11.0222C3.17968 11.4303 3.61517 12.1846 3.61517 13.0009C3.61517 13.8172 3.17968 14.5715 2.47275 14.9796V14.9796C1.38658 15.608 1.01475 16.9975 1.64191 18.0843V18.0843L2.39623 19.3853C2.6909 19.917 3.1853 20.3093 3.77003 20.4755C4.35476 20.6417 4.98161 20.568 5.51187 20.2708V20.2708C6.03315 19.9666 6.65433 19.8833 7.23735 20.0393C7.82036 20.1953 8.3169 20.5777 8.61659 21.1016C8.8131 21.4327 8.91869 21.8098 8.92269 22.1948V22.1948C8.92269 23.4567 9.94563 24.4796 11.2075 24.4796H12.7052C13.9628 24.4796 14.984 23.4633 14.99 22.2057V22.2057C14.9871 21.5989 15.2269 21.016 15.656 20.5869C16.0851 20.1578 16.6679 19.918 17.2748 19.9209C17.6589 19.9312 18.0344 20.0364 18.368 20.227V20.227C19.4582 20.8552 20.851 20.4837 21.4837 19.3962V19.3962L22.2708 18.0843C22.5754 17.5614 22.6591 16.9386 22.5031 16.3538C22.3472 15.769 21.9645 15.2705 21.4399 14.9687V14.9687C20.9153 14.6669 20.5327 14.1684 20.3767 13.5836C20.2208 12.9988 20.3044 12.376 20.6091 11.853C20.8072 11.5071 21.094 11.2203 21.4399 11.0222V11.0222C22.521 10.3899 22.8915 9.0052 22.2708 7.91749V7.91749V7.90656Z" stroke="white" stroke-opacity="0.5" stroke-width="1.7915" stroke-linecap="round" stroke-linejoin="round"/>
<circle cx="11.9619" cy="13.0009" r="3.14844" stroke="white" stroke-opacity="0.5" stroke-width="1.7915" stroke-linecap="round" stroke-linejoin="round"/>
</svg>
