<svg width="29" height="30" viewBox="0 0 29 30" fill="none" xmlns="http://www.w3.org/2000/svg">
<path fill-rule="evenodd" clip-rule="evenodd" d="M23.5734 3.28262C24.3916 3.04462 25.2778 3.27421 25.8786 3.88604C26.4793 4.49667 26.7015 5.38737 26.4567 6.21195L24.9649 11.2304C24.8228 11.7076 24.3259 11.9781 23.8505 11.8362C23.3764 11.6932 23.1064 11.1907 23.2486 10.7147L24.7403 5.69508C24.8239 5.41381 24.6747 5.22389 24.6066 5.15538C24.5385 5.08566 24.3474 4.9342 24.0715 5.01474L4.85284 10.6029C4.54709 10.6919 4.4802 10.9479 4.46587 11.0537C4.45273 11.1595 4.44795 11.4239 4.72027 11.5922L8.76441 14.0804C9.18603 14.34 9.3198 14.8954 9.06062 15.3209C8.89221 15.5974 8.5984 15.7512 8.29622 15.7512C8.13737 15.7512 7.97613 15.7091 7.83042 15.619L3.78627 13.1296C2.98485 12.6368 2.56443 11.7497 2.68984 10.8133C2.81524 9.87572 3.45423 9.13167 4.35599 8.86963L23.5734 3.28262ZM21.8109 15.5507C21.9542 15.0723 22.4523 14.8007 22.9265 14.9449C23.4006 15.0879 23.6705 15.5904 23.5284 16.0676L20.7551 25.4001C20.4864 26.3028 19.7435 26.9375 18.8154 27.0565C18.7115 27.0709 18.6088 27.0769 18.5061 27.0769C17.6963 27.0769 16.9558 26.661 16.5246 25.947L11.6277 17.8382C11.4139 17.4824 11.4676 17.0256 11.7603 16.7323L18.7127 9.73532C19.0627 9.38313 19.6288 9.38313 19.9787 9.73532C20.3287 10.0875 20.3287 10.6585 19.9787 11.0107L13.5244 17.5076L18.0558 25.0106C18.2206 25.2835 18.4798 25.2811 18.5873 25.2691C18.6924 25.2547 18.9468 25.1897 19.0376 24.8844L21.8109 15.5507Z" fill="white" fill-opacity="0.5"/>
</svg>
