<svg width="30" height="30" viewBox="0 0 30 30" fill="none" xmlns="http://www.w3.org/2000/svg">
<path fill-rule="evenodd" clip-rule="evenodd" d="M11.4638 7.3667H24.8879C25.3586 7.3667 25.7406 7.75724 25.7406 8.23974C25.7406 8.72344 25.3586 9.11398 24.8879 9.11398H5.09421C4.62359 9.11398 4.24268 8.72344 4.24268 8.23974C4.24268 7.75724 4.62359 7.3667 5.09421 7.3667H8.90921C9.4171 7.3667 9.85859 6.99527 9.9576 6.48649L10.2418 5.02943C10.5296 3.92349 11.4615 3.19019 12.5215 3.19019H17.4618C18.5218 3.19019 19.4537 3.92349 19.7287 4.97449C19.851 5.44147 19.5807 5.92039 19.1264 6.04579C18.6733 6.17119 18.205 5.89411 18.0827 5.42713C18.007 5.1393 17.7519 4.93866 17.4618 4.93866H12.5215C12.2315 4.93866 11.9763 5.1393 11.9006 5.42713L11.6292 6.82806C11.5919 7.01676 11.5337 7.19352 11.4638 7.3667ZM23.3418 11.2318C22.8782 11.2067 22.4612 11.5519 22.4239 12.0332C22.4181 12.1132 21.7867 20.1187 21.4244 23.464C21.2951 24.6679 20.6672 25.2638 19.5035 25.2865L19.0408 25.2948C17.5633 25.3214 16.8755 25.3337 15.2249 25.3283H15.2226C14.7519 25.3283 14.371 25.7165 14.3699 26.1978C14.3675 26.6815 14.7484 27.0732 15.2191 27.0756C15.5103 27.0768 15.8003 27.0768 16.0916 27.0768C17.3089 27.0768 17.795 27.067 18.708 27.0487C18.9474 27.0439 19.2161 27.0385 19.535 27.0326C21.5549 26.9956 22.8957 25.7332 23.1193 23.6551C23.4839 20.2859 24.1165 12.2542 24.1223 12.1741C24.1607 11.6928 23.8113 11.2712 23.3418 11.2318ZM10.3991 25.2814C9.30414 25.2575 8.68442 24.6484 8.55745 23.4696C8.19167 20.0981 7.56496 12.1141 7.55914 12.0341C7.52186 11.5528 7.11066 11.21 6.64121 11.2315C6.17176 11.2709 5.8223 11.6925 5.86074 12.1726C5.86656 12.2538 6.49444 20.2653 6.86254 23.6643C7.0827 25.6982 8.42349 26.9869 10.3642 27.0287H10.3817C10.8441 27.0287 11.2239 26.6501 11.2344 26.1736C11.2437 25.6911 10.8697 25.291 10.3991 25.2814Z" fill="white" fill-opacity="0.5"/>
</svg>
