<svg width="203" height="60" viewBox="0 0 203 60" fill="none" xmlns="http://www.w3.org/2000/svg">
<path d="M92.1835 42.3604H88.5146L81.4346 32.5859L77.5649 36.6849V42.3604H74.4406V21.3497H77.5649V32.5859L88.0846 21.3497H92.0116L83.527 30.3788L92.1835 42.3604ZM97.8539 21.3497V39.5799H111.985V42.3604H94.7295V21.3497H97.8539ZM124.761 42.7043C122.601 42.7043 120.748 42.2361 119.2 41.2998C117.652 40.3634 116.477 39.0736 115.674 37.4302C114.872 35.7868 114.47 33.9236 114.47 31.8407C114.47 29.7578 114.872 27.9042 115.674 26.2799C116.477 24.6365 117.652 23.3466 119.2 22.4102C120.748 21.4739 122.601 21.0057 124.761 21.0057C126.92 21.0057 128.774 21.4739 130.322 22.4102C131.889 23.3466 133.073 24.6365 133.876 26.2799C134.679 27.9042 135.08 29.7578 135.08 31.8407C135.08 33.9236 134.679 35.7868 133.876 37.4302C133.073 39.0736 131.898 40.3634 130.35 41.2998C128.802 42.2361 126.939 42.7043 124.761 42.7043ZM124.761 39.8666C126.347 39.8666 127.656 39.494 128.688 38.7487C129.739 38.0034 130.513 37.0289 131.01 35.825C131.506 34.602 131.755 33.2739 131.755 31.8407C131.755 30.4266 131.506 29.1176 131.01 27.9137C130.513 26.6907 129.739 25.7066 128.688 24.9613C127.656 24.2161 126.347 23.8434 124.761 23.8434C123.194 23.8434 121.885 24.2161 120.834 24.9613C119.783 25.7066 119.009 26.6907 118.512 27.9137C118.034 29.1176 117.795 30.4266 117.795 31.8407C117.795 33.2739 118.034 34.602 118.512 35.825C119.009 37.0289 119.783 38.0034 120.834 38.7487C121.885 39.494 123.194 39.8666 124.761 39.8666ZM147.921 42.7043C146.03 42.7043 144.444 42.3699 143.163 41.7011C141.883 41.0131 140.927 40.0768 140.297 38.892C139.685 37.6881 139.38 36.3123 139.38 34.7644V21.3497H142.619V30.6368V34.5064C142.619 36.0161 142.991 37.2868 143.737 38.3187C144.501 39.3506 145.896 39.8666 147.921 39.8666C149.947 39.8666 151.342 39.3506 152.106 38.3187C152.871 37.2868 153.253 36.0161 153.253 34.5064V30.6368V21.3497H156.492V34.7644C156.492 36.3123 156.177 37.6881 155.546 38.892C154.935 40.0768 153.979 41.0131 152.68 41.7011C151.399 42.3699 149.813 42.7043 147.921 42.7043ZM171.088 21.3497C174.451 21.3497 176.821 22.3816 178.196 24.4454C179.572 26.5092 180.26 28.9838 180.26 31.8693C180.26 34.7549 179.572 37.2295 178.196 39.2933C176.821 41.338 174.451 42.3604 171.088 42.3604H161.715V21.3497H171.088ZM170.228 39.6086C171.47 39.6086 172.569 39.4271 173.524 39.064C174.48 38.6818 175.273 37.927 175.903 36.7995C176.553 35.653 176.878 34.0096 176.878 31.8693C176.878 29.7291 176.553 28.0857 175.903 26.9391C175.273 25.7926 174.48 25.0378 173.524 24.6747C172.569 24.2925 171.47 24.1014 170.228 24.1014H164.839V39.6086H170.228ZM200.841 21.3497V24.1014H187.541V30.0922H195.911V32.8439H187.541V39.6086H200.841V42.3604H184.416V21.3497H200.841Z" fill="white"/>
<circle cx="29.8583" cy="29.8583" r="29.8583" fill="white"/>
<rect width="9.55465" height="9.55465" transform="matrix(0.707107 0.707107 -0.705338 0.708871 29.9224 32.2023)" fill="#060D01"/>
<rect width="9.55465" height="9.55465" transform="matrix(0.707107 0.707107 -0.705338 0.708871 19.7881 22.0681)" fill="#060D01"/>
<rect width="9.55465" height="9.55465" transform="matrix(0.707107 0.707107 -0.705338 0.708871 40.0566 22.0681)" fill="#060D01"/>
<rect width="9.55465" height="9.55465" transform="matrix(0.707107 0.707107 -0.705338 0.708871 29.9224 11.9339)" fill="#060D01"/>
</svg>
